<svg width="500" height="500" viewBox="0 0 500 500" fill="none" xmlns="http://www.w3.org/2000/svg">
<rect width="500" height="500" fill="#F5F5F5"/>
<rect width="500" height="500" fill="white"/>
<path fill-rule="evenodd" clip-rule="evenodd" d="M363.369 136.534L205.631 125C184.299 125 167 141.415 167 161.659V311.354C167 331.585 184.299 348 205.631 348L363.382 336.466C385.015 335.401 402 320.051 402 299.807V173.193C402 152.949 385.563 137.723 363.369 136.534ZM348.903 189.051C347.833 191.714 346.396 194.403 343.968 195.877C341.514 197.388 337.584 197.512 333.537 197.512C313.679 197.512 293.561 196.918 273.39 196.918C271.405 205.689 269.421 214.46 267.502 223.281C279.669 223.231 291.955 223.343 304.188 223.343C313.666 223.343 323.275 222.488 324.894 229.847C325.416 232.189 324.881 235.125 324.215 237.466C322.844 242.174 320.847 245.841 316.055 247.167C313.64 247.836 310.729 247.885 307.621 247.885C292.673 247.885 277.006 248.096 262.018 248.133C259.812 257.697 257.736 267.373 255.634 277.036C276.131 276.975 295.676 276.529 316.121 276.318C324.306 276.231 330.286 278.721 329.294 286.848C328.889 290.094 328.014 293.006 326.539 295.83C325.207 298.407 323.301 300.489 320.168 301.43C317.074 302.359 313.105 302.223 308.914 302.397C304.945 302.57 300.898 302.496 296.851 302.595C292.816 302.706 288.769 302.867 284.853 302.867C268.494 302.867 253.141 303.858 236.769 303.772C228.896 303.722 223.531 300.687 222.094 294.393C221.324 291.011 221.859 287.208 222.564 283.974C229.627 251.862 236.704 219.849 243.832 187.799C244.563 184.516 245.32 181.469 246.769 178.954C248.976 175.187 252.305 172.499 257.083 171.273C261.888 170.046 268.611 170.69 274.63 170.69C278.612 170.69 282.62 170.789 286.563 170.888C298.639 171.211 310.285 171.26 322.426 171.545C326.395 171.632 330.456 171.743 334.372 171.743C342.48 171.743 349.647 172.648 350.626 179.35C351.136 182.918 349.961 186.375 348.903 189.051Z" fill="black"/>
</svg>
